<svg xmlns="http://www.w3.org/2000/svg" width="1000" height="280" viewBox="0 0 1000 280">
  <defs>
    <linearGradient id="bg" x1="0" y1="0" x2="1" y2="1">
      <stop offset="0%" stop-color="#0f172a"/>
      <stop offset="100%" stop-color="#1e1b4b"/>
    </linearGradient>
    <linearGradient id="accent" x1="0" y1="0" x2="1" y2="0">
      <stop offset="0%" stop-color="#38bdf8"/>
      <stop offset="100%" stop-color="#a78bfa"/>
    </linearGradient>
    <linearGradient id="spark" x1="0" y1="0" x2="1" y2="1">
      <stop offset="0%" stop-color="#fbbf24"/>
      <stop offset="100%" stop-color="#f59e0b"/>
    </linearGradient>
  </defs>
  <rect width="1000" height="280" rx="28" fill="url(#bg)"/>
  <g opacity="0.08" stroke="#94a3b8" stroke-width="1.5" fill="none">
    <circle cx="880" cy="40" r="120"/>
    <circle cx="880" cy="40" r="200"/>
    <circle cx="120" cy="250" r="160"/>
  </g>

  <!-- wrench icon -->
  <g transform="translate(120,52)" fill="url(#accent)">
    <path d="M74.5 4.5 53.6 25.4a14.5 14.5 0 0 0-18.4 17.4L12.9 65.1a8.5 8.5 0 0 0 12 12l22.3-22.3a14.5 14.5 0 0 0 17.4-18.4L85.5 15.5a8.5 8.5 0 0 0-11-11Z"/>
    <circle cx="54" cy="68" r="14" fill="#0f172a"/>
    <rect x="12" y="56" width="22" height="24" rx="8" fill="none" stroke="url(#accent)" stroke-width="4"/>
  </g>

  <!-- spark -->
  <g transform="translate(115,200)">
    <path d="M0 -18 L6 -5 L20 -2 L8 6 L12 21 L0 12 L-12 21 L-8 6 L-20 -2 L-6 -5 Z" fill="url(#spark)"/>
  </g>

  <!-- title -->
  <text x="215" y="118" font-family="Segoe UI, Arial, sans-serif" font-size="64" font-weight="700" fill="#ffffff">agent-fix</text>
  <text x="218" y="158" font-family="Segoe UI, Arial, sans-serif" font-size="22" fill="#94a3b8">Universal repair skill &amp; CLI for AI coding agents</text>

  <!-- tag chips -->
  <g font-family="Consolas, monospace" font-size="15" font-weight="600">
    <rect x="218" y="176" width="104" height="28" rx="14" fill="#0ea5e9" opacity="0.9"/>
    <text x="270" y="195" text-anchor="middle" fill="#ffffff">Claude Code</text>
    <rect x="334" y="176" width="72" height="28" rx="14" fill="#38bdf8" opacity="0.85"/>
    <text x="370" y="195" text-anchor="middle" fill="#0c4a6e">Codex</text>
    <rect x="418" y="176" width="94" height="28" rx="14" fill="#a78bfa" opacity="0.9"/>
    <text x="465" y="195" text-anchor="middle" fill="#ffffff">OpenCode</text>
    <rect x="524" y="176" width="86" height="28" rx="14" fill="#34d399" opacity="0.9"/>
    <text x="567" y="195" text-anchor="middle" fill="#064e3b">Hermes</text>
    <rect x="622" y="176" width="100" height="28" rx="14" fill="#f472b6" opacity="0.9"/>
    <text x="672" y="195" text-anchor="middle" fill="#ffffff">Kimi Code</text>
    <rect x="218" y="216" width="62" height="28" rx="14" fill="#22d3ee" opacity="0.9"/>
    <text x="249" y="235" text-anchor="middle" fill="#083344">Pi</text>
    <rect x="292" y="216" width="92" height="28" rx="14" fill="#fbbf24" opacity="0.9"/>
    <text x="338" y="235" text-anchor="middle" fill="#451a03">ZCode</text>
    <rect x="396" y="216" width="92" height="28" rx="14" fill="#f59e0b" opacity="0.9"/>
    <text x="442" y="235" text-anchor="middle" fill="#451a03">npm CLI</text>
    <rect x="500" y="216" width="100" height="28" rx="14" fill="#64748b" opacity="0.9"/>
    <text x="550" y="235" text-anchor="middle" fill="#f8fafc">Windows</text>
    <rect x="612" y="216" width="92" height="28" rx="14" fill="#64748b" opacity="0.9"/>
    <text x="658" y="235" text-anchor="middle" fill="#f8fafc">macOS</text>
    <rect x="716" y="216" width="84" height="28" rx="14" fill="#64748b" opacity="0.9"/>
    <text x="758" y="235" text-anchor="middle" fill="#f8fafc">Linux</text>
    <text x="218" y="266" font-family="Consolas, monospace" font-size="13" fill="#94a3b8">+ Aider · Amp · Cursor · Droid · Gemini CLI · Qwen Code · any npm CLI</text>
  </g>
</svg>
